REM DIRINDEX 1\2\4,1\2\5,1\3\6,1\3\7,1\3\8
REM DIRNAME folder01,folder02,folder03,folder04,folder05,folder06,folder07,folder08
TITLE ""
FILE "LV4_069_WORDS.mp3" MP3
  TRACK 01 AUDIO
    TITLE "0:"
    INDEX 01 00:00:00
  TRACK 02 AUDIO
    TITLE "6:cjc094_2439"
    INDEX 01 00:00:07
  TRACK 03 AUDIO
    TITLE "0:"
    INDEX 01 00:03:04
  TRACK 04 AUDIO
    TITLE "7:cjc094_2440"
    INDEX 01 00:03:63
  TRACK 05 AUDIO
    TITLE "0:"
    INDEX 01 00:05:01
  TRACK 06 AUDIO
    TITLE "8:cjc094_2441"
    INDEX 01 00:05:16
  TRACK 07 AUDIO
    TITLE "0:"
    INDEX 01 00:06:49
  TRACK 08 AUDIO
    TITLE "7:cjc094_2442"
    INDEX 01 00:07:31
  TRACK 09 AUDIO
    TITLE "0:"
    INDEX 01 00:08:42
  TRACK 10 AUDIO
    TITLE "8:cjc094_2443"
    INDEX 01 00:08:52
  TRACK 11 AUDIO
    TITLE "0:"
    INDEX 01 00:11:17
  TRACK 12 AUDIO
    TITLE "7:cjc094_2444"
    INDEX 01 00:11:68
  TRACK 13 AUDIO
    TITLE "0:"
    INDEX 01 00:12:67
  TRACK 14 AUDIO
    TITLE "8:cjc094_2445"
    INDEX 01 00:13:02
  TRACK 15 AUDIO
    TITLE "0:"
    INDEX 01 00:15:15
  TRACK 16 AUDIO
    TITLE "7:cjc094_2446"
    INDEX 01 00:15:60
  TRACK 17 AUDIO
    TITLE "0:"
    INDEX 01 00:16:65
  TRACK 18 AUDIO
    TITLE "8:cjc094_2447"
    INDEX 01 00:17:04
  TRACK 19 AUDIO
    TITLE "0:"
    INDEX 01 00:20:08
  TRACK 20 AUDIO
    TITLE "7:cjc094_2448"
    INDEX 01 00:20:53
  TRACK 21 AUDIO
    TITLE "0:"
    INDEX 01 00:21:62
  TRACK 22 AUDIO
    TITLE "8:cjc094_2449"
    INDEX 01 00:22:09
  TRACK 23 AUDIO
    TITLE "0:"
    INDEX 01 00:23:18
  TRACK 24 AUDIO
    TITLE "7:cjc094_2450"
    INDEX 01 00:23:63
  TRACK 25 AUDIO
    TITLE "0:"
    INDEX 01 00:24:72
  TRACK 26 AUDIO
    TITLE "8:cjc094_2451"
    INDEX 01 00:25:05
  TRACK 27 AUDIO
    TITLE "0:"
    INDEX 01 00:26:32
  TRACK 28 AUDIO
    TITLE "7:cjc094_2452"
    INDEX 01 00:26:73
  TRACK 29 AUDIO
    TITLE "0:"
    INDEX 01 00:28:17
  TRACK 30 AUDIO
    TITLE "8:cjc094_2453"
    INDEX 01 00:28:29
  TRACK 31 AUDIO
    TITLE "0:"
    INDEX 01 00:29:36
  TRACK 32 AUDIO
    TITLE "7:cjc094_2454"
    INDEX 01 00:30:10
  TRACK 33 AUDIO
    TITLE "0:"
    INDEX 01 00:31:10
  TRACK 34 AUDIO
    TITLE "8:cjc094_2455"
    INDEX 01 00:31:26
  TRACK 35 AUDIO
    TITLE "0:"
    INDEX 01 00:32:37
  TRACK 36 AUDIO
    TITLE "7:cjc094_2456"
    INDEX 01 00:33:11
  TRACK 37 AUDIO
    TITLE "0:"
    INDEX 01 00:34:12
  TRACK 38 AUDIO
    TITLE "8:cjc094_2457"
    INDEX 01 00:34:26
  TRACK 39 AUDIO
    TITLE "0:"
    INDEX 01 00:37:54
  TRACK 40 AUDIO
    TITLE "7:cjc094_2458"
    INDEX 01 00:38:24
  TRACK 41 AUDIO
    TITLE "0:"
    INDEX 01 00:39:33
  TRACK 42 AUDIO
    TITLE "8:cjc094_2459"
    INDEX 01 00:39:43
  TRACK 43 AUDIO
    TITLE "0:"
    INDEX 01 00:42:23
  TRACK 44 AUDIO
    TITLE "7:cjc094_2460"
    INDEX 01 00:42:72
  TRACK 45 AUDIO
    TITLE "0:"
    INDEX 01 00:44:12
  TRACK 46 AUDIO
    TITLE "8:cjc094_2461"
    INDEX 01 00:44:28
  TRACK 47 AUDIO
    TITLE "0:"
    INDEX 01 00:47:68
  TRACK 48 AUDIO
    TITLE "7:cjc094_2462"
    INDEX 01 00:48:42
  TRACK 49 AUDIO
    TITLE "0:"
    INDEX 01 00:49:33
  TRACK 50 AUDIO
    TITLE "8:cjc094_2463"
    INDEX 01 00:49:51
  TRACK 51 AUDIO
    TITLE "0:"
    INDEX 01 00:50:48
  TRACK 52 AUDIO
    TITLE "7:cjc094_2464"
    INDEX 01 00:51:18
  TRACK 53 AUDIO
    TITLE "0:"
    INDEX 01 00:52:18
  TRACK 54 AUDIO
    TITLE "8:cjc094_2465"
    INDEX 01 00:52:32
  TRACK 55 AUDIO
    TITLE "0:"
    INDEX 01 00:53:39
  TRACK 56 AUDIO
    TITLE "7:cjc094_2466"
    INDEX 01 00:54:15
  TRACK 57 AUDIO
    TITLE "0:"
    INDEX 01 00:55:16
  TRACK 58 AUDIO
    TITLE "8:cjc094_2467"
    INDEX 01 00:55:44
  TRACK 59 AUDIO
    TITLE "0:"
    INDEX 01 00:57:45
  TRACK 60 AUDIO
    TITLE "7:cjc094_2468"
    INDEX 01 00:58:17
  TRACK 61 AUDIO
    TITLE "0:"
    INDEX 01 00:59:26
  TRACK 62 AUDIO
    TITLE "8:cjc094_2469"
    INDEX 01 00:59:41
  TRACK 63 AUDIO
    TITLE "0:"
    INDEX 01 01:02:30
